<svg xmlns="http://www.w3.org/2000/svg" height="768" preserveAspectRatio="none" style="display: block;" version="1.1" viewBox="0 0 2048 1170" width="1344">
<path d="M 1585.34 443.503 C 1604.15 443.35 1623.89 442.417 1642.55 444.151 C 1670.72 446.768 1680.69 481.819 1661.16 500.297 C 1650.82 510.083 1630 508.285 1616.73 508.249 C 1603.85 508.198 1590.97 508.078 1578.1 507.89 C 1570.78 507.817 1560.57 506.777 1554.37 511.468 C 1551.57 513.583 1550.5 516.311 1550.11 519.727 C 1549.3 526.64 1548.29 542.608 1553.05 548.082 C 1555.28 550.639 1558.6 551.914 1561.86 552.531 C 1578.91 555.761 1609.59 550.952 1629.01 553.273 C 1637.75 554.317 1646.52 557.413 1652.07 564.609 C 1657.94 572.22 1659.08 582.661 1657.83 591.926 C 1656.28 603.477 1645.87 614.958 1634.46 617.585 C 1616.68 621.681 1566.39 611.893 1554.76 621.469 C 1551.58 624.088 1549.94 628.12 1549.73 632.165 C 1549.42 638.299 1548.51 651.618 1553.04 656.217 C 1561.33 664.628 1593 660.669 1604.65 660.468 C 1630.65 660.138 1670.2 654.629 1671.06 692.606 C 1671.34 701.442 1668.03 710.013 1661.88 716.366 C 1654.52 723.85 1644.39 725.97 1634.2 725.974 C 1606 725.986 1577.8 725.511 1549.6 725.914 C 1540.33 726.047 1529.68 726.495 1520.63 724.594 C 1512.82 722.978 1505.65 719.118 1499.99 713.487 C 1488.13 701.701 1486.96 690.554 1486.87 675.076 L 1486.88 545.781 C 1486.85 535.685 1486.02 488.564 1487.58 480.668 C 1489.39 471.675 1493.87 463.436 1500.43 457.028 C 1519.45 438.134 1558 443.405 1585.34 443.503 z" fill="rgb(10,32,45)" transform="translate(0,0)"></path>
<path d="M 1095.91 510.473 C 1155.32 506.73 1206.52 551.858 1210.26 611.272 C 1214.01 670.685 1168.88 721.884 1109.47 725.629 C 1050.05 729.374 998.852 684.244 995.107 624.83 C 991.363 565.416 1036.49 514.216 1095.91 510.473 z" fill="rgb(178,92,11)" transform="translate(0,0)"></path>
<path d="M 1091.96 546.515 C 1131.43 540.727 1168.1 568.088 1173.78 607.571 C 1179.47 647.054 1152.01 683.649 1112.51 689.232 C 1073.16 694.794 1036.73 667.46 1031.07 628.123 C 1025.4 588.785 1052.64 552.283 1091.96 546.515 z" fill="rgb(255,255,255)" transform="translate(0,0)"></path>
<path d="M 452.438 443.544 C 470.622 443.096 488.811 442.914 507 443.001 C 541.666 443.053 571.303 445.37 597.202 471.419 C 647.603 522.113 621.99 614.203 551.08 628.839 C 538.065 631.525 528.759 631.33 515.526 631.196 C 505.986 630.979 495.851 630.441 486.391 631.419 C 478.002 632.846 481.514 646.555 480.941 652.551 C 479.265 670.104 486.276 703.273 477.117 718.423 C 469.068 731.738 441.989 726.951 441.397 709.347 C 441.082 699.989 441.125 689.259 441.117 679.192 L 441.136 614.489 L 441.153 508.806 C 441.14 499.781 439.752 449.689 442.964 445.505 C 445.806 443.389 448.749 443.721 452.438 443.544 z" fill="rgb(178,92,11)" transform="translate(0,0)"></path>
<path d="M 482.542 482.107 C 511.945 481.914 546.443 477.313 569.324 497.36 C 580.268 506.847 586.871 520.387 587.606 534.853 C 588.448 551.785 581.386 564.617 570.522 576.708 C 546.471 598.661 512.859 593.712 481.299 593.166 C 480.828 579.286 479.729 489.69 482.542 482.107 z" fill="rgb(255,255,255)" transform="translate(0,0)"></path>
<path d="M 1234.18 444.172 C 1268.11 441.052 1272.32 470.184 1282.2 496.475 L 1311.08 574.499 C 1314.55 583.721 1324.16 616.598 1333.58 620.068 C 1348.61 625.61 1355.36 594.88 1359.34 583.911 L 1389.79 501.247 C 1395.68 485.302 1403.48 454.214 1419 446.793 C 1426.42 443.221 1434.96 442.787 1442.7 445.591 C 1450.18 448.368 1456.19 454.088 1459.34 461.418 C 1468.62 482.498 1445.74 526.963 1437.48 548.751 C 1421 593.232 1403.53 637.251 1387.42 681.857 C 1381.9 698.387 1374.19 714.541 1357.05 721.947 C 1328.48 734.291 1302.61 719.397 1291.76 692.184 C 1275.66 651.838 1260.81 611.755 1245.28 571.529 L 1224.02 516.277 C 1213.38 488.463 1196.74 459.54 1234.18 444.172 z" fill="rgb(10,32,45)" transform="translate(0,0)"></path>
<path d="M 730.583 508.396 C 756.989 503.988 790.931 518.445 810.003 536.316 C 832.169 557.471 844.903 586.648 845.341 617.287 C 845.552 628.319 842.199 629.692 831.903 629.809 C 813.274 630.022 794.637 629.616 776.004 629.576 L 672.771 629.842 C 685.742 692.923 756.906 709.428 800.208 663.229 C 801.949 660.977 804.644 658.214 806.621 656.059 C 822.014 661.497 842.62 666.816 828.013 685.327 C 809.905 707.98 783.606 722.594 754.806 726.007 C 727.046 729.127 699.193 721.002 677.464 703.446 C 599.928 640.595 632.6 518.28 730.583 508.396 z" fill="rgb(178,92,11)" transform="translate(0,0)"></path>
<path d="M 731.614 545.292 C 769.163 542.47 793.189 557.42 805.194 593.484 C 787.252 593.644 769.026 593.404 751.062 593.326 L 674.439 593.352 C 684.411 565.089 701.96 549.914 731.614 545.292 z" fill="rgb(255,255,255)" transform="translate(0,0)"></path>
<path d="M 1727.9 443.452 C 1746.22 442.832 1766.37 443.323 1784.82 443.307 C 1814.75 443.157 1844.68 443.288 1874.61 443.699 C 1885.51 443.932 1895.49 445.231 1903.27 453.528 C 1909.31 459.97 1912.3 468.007 1911.94 476.825 C 1909.96 526.659 1854.52 497.242 1839.66 512.19 C 1836.87 514.999 1836.4 519.02 1836.03 522.773 C 1834.35 539.731 1835.68 558.013 1835.66 575.103 L 1835.31 679.5 C 1835.45 692.081 1835.92 704.742 1827.89 715.183 C 1817.34 728.459 1798.3 729.834 1785.21 719.438 C 1768.4 706.089 1772.7 679.187 1772.7 659.09 L 1772.66 566.009 C 1772.6 552.884 1772.74 533.475 1771.91 520.443 C 1770.41 497.041 1724.42 517.381 1707.98 500.846 C 1701.87 494.703 1697.9 489.16 1696.84 479.734 C 1695.83 470.927 1698.47 462.088 1704.15 455.282 C 1710.75 447.344 1717.93 444.279 1727.9 443.452 z" fill="rgb(10,32,45)" transform="translate(0,0)"></path>
<path d="M 248.786 554.272 C 261.342 554.044 279.918 552.607 291.148 556.844 C 312.429 564.365 298.867 585.874 304.648 600.48 C 312.299 619.806 345.081 596.038 351.662 618.871 C 354.778 629.683 355.711 659.61 352.077 669.708 C 347.154 685.94 314.164 676.044 309.204 680.025 C 292.819 693.176 317.322 718.75 287.862 728.882 C 275.899 728.965 252.103 730.93 242.057 726.575 C 217.936 716.117 249.8 673.196 212.266 679.242 C 175.942 685.093 182.281 657.293 181.642 633.418 C 179.167 597.446 210.719 612.575 225.894 606.91 C 243.549 600.319 216.941 567.426 248.786 554.272 z" fill="rgb(178,92,11)" transform="translate(0,0)"></path>
<path d="M 910.921 549.386 C 926.133 524.631 946.117 512.33 974.845 509.849 C 992.02 508.366 987.099 536.931 984.253 546.55 C 980.982 549.531 968.843 549.228 965.548 550.095 C 925.869 560.543 911.892 592.389 911.759 630.125 C 911.834 644.025 914.698 709.36 908.937 718.07 C 906.472 721.796 902.444 725.02 897.989 725.83 C 892.757 726.781 886.016 725.388 881.677 722.31 C 878.474 720.037 876.058 716.752 875.407 712.83 C 873.639 702.194 874.237 690.762 874.194 679.991 L 874.083 628.695 L 873.995 563.671 C 873.989 551.008 873.65 538.115 874.527 525.501 C 875.255 515.017 883.171 511.551 892.266 510.318 C 915.713 512.168 911.41 531.814 910.921 549.386 z" fill="rgb(178,92,11)" transform="translate(0,0)"></path>
<path d="M 308.118 442.154 C 355.404 438.258 352.21 518.855 310.781 529.962 C 265.892 531.976 264.638 460.153 308.118 442.154 z" fill="rgb(178,92,11)" transform="translate(0,0)"></path>
<path d="M 220.442 442.301 C 259.673 443.782 277.308 520.716 231.693 529.833 C 187.551 531.845 176.889 449.708 220.442 442.301 z" fill="rgb(178,92,11)" transform="translate(0,0)"></path>
<path d="M 367.377 515.205 C 413.858 512.247 403.049 581.762 364.864 593.163 C 317.502 594.302 325.061 529.463 367.377 515.205 z" fill="rgb(178,92,11)" transform="translate(0,0)"></path>
<path d="M 156.057 515.253 C 194.594 512.441 223.702 572.749 181.908 592.64 C 142.58 600.946 116.984 529.77 156.057 515.253 z" fill="rgb(178,92,11)" transform="translate(0,0)"></path>
<metadata><recraft-signature>{"signed_by": "recraft", "signature_b64": "BhB32mIi8AWRC7WvJa2qDHuGPAIM/WedD4xxmB7WIXR7JGUy2xAVwX5alzkBYi5DiRsOnaodRET297slqqFxAQ==", "signing_algo": "Ed25519", "generation_timestamp": 1776108883, "identifier": "8e997028-633d-459d-ab10-702d6ea2201e"}</recraft-signature></metadata></svg>
